<svg width="26" height="23" viewBox="0 0 26 23" fill="none" xmlns="http://www.w3.org/2000/svg">
<path d="M6.90323 1.95199C8.16297 1.95199 9.42003 2.45497 10.3983 3.46222L12.3084 5.42449C12.3992 5.51797 12.5076 5.59224 12.6271 5.64292C12.7465 5.69361 12.8748 5.71972 13.0044 5.71972C13.134 5.71972 13.2623 5.69361 13.3818 5.64292C13.5013 5.59224 13.6096 5.51797 13.7004 5.42449L15.5902 3.47249C17.5468 1.45797 20.634 1.458 22.5906 3.47249C24.5471 5.48699 24.5471 8.71121 22.5906 10.7257C19.3926 14.0184 16.1973 17.3163 12.9993 20.609L3.40813 10.7154C1.45273 8.69815 1.45162 5.47671 3.40813 3.46222C4.38644 2.45497 5.6435 1.95199 6.90323 1.95199Z" fill="#FF0000"/>
<path fill-rule="evenodd" clip-rule="evenodd" d="M6.90323 0C5.13094 0 3.36122 0.700706 2.0162 2.08555C-0.67379 4.85525 -0.670344 9.33083 2.0162 12.1024L12.2983 22.7048C12.3891 22.7983 12.4974 22.8725 12.6169 22.9232C12.7364 22.9739 12.8647 23 12.9943 23C13.1239 23 13.2521 22.9739 13.3716 22.9232C13.4911 22.8725 13.5994 22.7983 13.6902 22.7048C17.1214 19.172 20.5513 15.6454 23.9825 12.1126C26.6725 9.34294 26.6725 4.86552 23.9825 2.09583C21.2925 -0.67387 16.8883 -0.673903 14.1982 2.09583L12.9993 3.32866L11.7903 2.08555C10.4453 0.700706 8.67553 0 6.90323 0ZM10.3983 3.46222C9.42003 2.45497 8.16297 1.95199 6.90323 1.95199C5.6435 1.95199 4.38644 2.45497 3.40813 3.46222C1.45162 5.47671 1.45273 8.69815 3.40813 10.7154L12.9993 20.609C16.1973 17.3163 19.3926 14.0184 22.5906 10.7257C24.5471 8.71121 24.5471 5.48699 22.5906 3.47249C20.634 1.458 17.5468 1.45797 15.5902 3.47249L13.7004 5.42449C13.6096 5.51797 13.5013 5.59224 13.3818 5.64292C13.2623 5.69361 13.134 5.71972 13.0044 5.71972C12.8748 5.71972 12.7465 5.69361 12.6271 5.64292C12.5076 5.59224 12.3992 5.51797 12.3084 5.42449L10.3983 3.46222Z" fill="#FF0000"/>
</svg>
