<svg width="50" height="50" viewBox="0 0 50 50" fill="none" xmlns="http://www.w3.org/2000/svg">
<path d="M24.9995 20.0283C22.2588 20.0283 20.0272 22.2588 20.0272 24.9995C20.0272 27.7412 22.2588 29.9728 24.9995 29.9728C27.7412 29.9728 29.9717 27.7412 29.9717 24.9995C29.9717 22.2588 27.7412 20.0283 24.9995 20.0283ZM24.9995 20.0283C22.2588 20.0283 20.0272 22.2588 20.0272 24.9995C20.0272 27.7412 22.2588 29.9728 24.9995 29.9728C27.7412 29.9728 29.9717 27.7412 29.9717 24.9995C29.9717 22.2588 27.7412 20.0283 24.9995 20.0283ZM33.2829 11.9215H16.7171C14.073 11.9215 11.9215 14.073 11.9215 16.7171V33.2829C11.9215 35.927 14.073 38.0785 16.7171 38.0785H33.2829C35.927 38.0785 38.0785 35.927 38.0785 33.2829V16.7171C38.0785 14.073 35.927 11.9215 33.2829 11.9215ZM24.9995 33.6109C20.2521 33.6109 16.3891 29.7479 16.3891 24.9995C16.3891 20.2521 20.2521 16.3891 24.9995 16.3891C29.7479 16.3891 33.6109 20.2521 33.6109 24.9995C33.6109 29.7479 29.7479 33.6109 24.9995 33.6109ZM33.8874 18.1698C32.7639 18.1698 31.85 17.2558 31.85 16.1324C31.85 15.0089 32.7639 14.095 33.8874 14.095C35.0109 14.095 35.9248 15.0089 35.9248 16.1324C35.9248 17.2558 35.0109 18.1698 33.8874 18.1698ZM24.9995 20.0283C22.2588 20.0283 20.0272 22.2588 20.0272 24.9995C20.0272 27.7412 22.2588 29.9728 24.9995 29.9728C27.7412 29.9728 29.9717 27.7412 29.9717 24.9995C29.9717 22.2588 27.7412 20.0283 24.9995 20.0283ZM33.2829 11.9215H16.7171C14.073 11.9215 11.9215 14.073 11.9215 16.7171V33.2829C11.9215 35.927 14.073 38.0785 16.7171 38.0785H33.2829C35.927 38.0785 38.0785 35.927 38.0785 33.2829V16.7171C38.0785 14.073 35.927 11.9215 33.2829 11.9215ZM24.9995 33.6109C20.2521 33.6109 16.3891 29.7479 16.3891 24.9995C16.3891 20.2521 20.2521 16.3891 24.9995 16.3891C29.7479 16.3891 33.6109 20.2521 33.6109 24.9995C33.6109 29.7479 29.7479 33.6109 24.9995 33.6109ZM33.8874 18.1698C32.7639 18.1698 31.85 17.2558 31.85 16.1324C31.85 15.0089 32.7639 14.095 33.8874 14.095C35.0109 14.095 35.9248 15.0089 35.9248 16.1324C35.9248 17.2558 35.0109 18.1698 33.8874 18.1698ZM24.9995 20.0283C22.2588 20.0283 20.0272 22.2588 20.0272 24.9995C20.0272 27.7412 22.2588 29.9728 24.9995 29.9728C27.7412 29.9728 29.9717 27.7412 29.9717 24.9995C29.9717 22.2588 27.7412 20.0283 24.9995 20.0283ZM0 0V50H50V0H0ZM41.7166 33.2829C41.7166 37.9336 37.9336 41.7166 33.2829 41.7166H16.7171C12.0664 41.7166 8.28341 37.9336 8.28341 33.2829V16.7171C8.28341 12.0664 12.0664 8.28341 16.7171 8.28341H33.2829C37.9336 8.28341 41.7166 12.0664 41.7166 16.7171V33.2829ZM33.2829 11.9215H16.7171C14.073 11.9215 11.9215 14.073 11.9215 16.7171V33.2829C11.9215 35.927 14.073 38.0785 16.7171 38.0785H33.2829C35.927 38.0785 38.0785 35.927 38.0785 33.2829V16.7171C38.0785 14.073 35.927 11.9215 33.2829 11.9215ZM24.9995 33.6109C20.2521 33.6109 16.3891 29.7479 16.3891 24.9995C16.3891 20.2521 20.2521 16.3891 24.9995 16.3891C29.7479 16.3891 33.6109 20.2521 33.6109 24.9995C33.6109 29.7479 29.7479 33.6109 24.9995 33.6109ZM33.8874 18.1698C32.7639 18.1698 31.85 17.2558 31.85 16.1324C31.85 15.0089 32.7639 14.095 33.8874 14.095C35.0109 14.095 35.9248 15.0089 35.9248 16.1324C35.9248 17.2558 35.0109 18.1698 33.8874 18.1698ZM24.9995 20.0283C22.2588 20.0283 20.0272 22.2588 20.0272 24.9995C20.0272 27.7412 22.2588 29.9728 24.9995 29.9728C27.7412 29.9728 29.9717 27.7412 29.9717 24.9995C29.9717 22.2588 27.7412 20.0283 24.9995 20.0283ZM24.9995 20.0283C22.2588 20.0283 20.0272 22.2588 20.0272 24.9995C20.0272 27.7412 22.2588 29.9728 24.9995 29.9728C27.7412 29.9728 29.9717 27.7412 29.9717 24.9995C29.9717 22.2588 27.7412 20.0283 24.9995 20.0283ZM24.9995 20.0283C22.2588 20.0283 20.0272 22.2588 20.0272 24.9995C20.0272 27.7412 22.2588 29.9728 24.9995 29.9728C27.7412 29.9728 29.9717 27.7412 29.9717 24.9995C29.9717 22.2588 27.7412 20.0283 24.9995 20.0283ZM33.2829 11.9215H16.7171C14.073 11.9215 11.9215 14.073 11.9215 16.7171V33.2829C11.9215 35.927 14.073 38.0785 16.7171 38.0785H33.2829C35.927 38.0785 38.0785 35.927 38.0785 33.2829V16.7171C38.0785 14.073 35.927 11.9215 33.2829 11.9215ZM24.9995 33.6109C20.2521 33.6109 16.3891 29.7479 16.3891 24.9995C16.3891 20.2521 20.2521 16.3891 24.9995 16.3891C29.7479 16.3891 33.6109 20.2521 33.6109 24.9995C33.6109 29.7479 29.7479 33.6109 24.9995 33.6109ZM33.8874 18.1698C32.7639 18.1698 31.85 17.2558 31.85 16.1324C31.85 15.0089 32.7639 14.095 33.8874 14.095C35.0109 14.095 35.9248 15.0089 35.9248 16.1324C35.9248 17.2558 35.0109 18.1698 33.8874 18.1698ZM24.9995 20.0283C22.2588 20.0283 20.0272 22.2588 20.0272 24.9995C20.0272 27.7412 22.2588 29.9728 24.9995 29.9728C27.7412 29.9728 29.9717 27.7412 29.9717 24.9995C29.9717 22.2588 27.7412 20.0283 24.9995 20.0283ZM24.9995 20.0283C22.2588 20.0283 20.0272 22.2588 20.0272 24.9995C20.0272 27.7412 22.2588 29.9728 24.9995 29.9728C27.7412 29.9728 29.9717 27.7412 29.9717 24.9995C29.9717 22.2588 27.7412 20.0283 24.9995 20.0283ZM24.9995 20.0283C22.2588 20.0283 20.0272 22.2588 20.0272 24.9995C20.0272 27.7412 22.2588 29.9728 24.9995 29.9728C27.7412 29.9728 29.9717 27.7412 29.9717 24.9995C29.9717 22.2588 27.7412 20.0283 24.9995 20.0283ZM33.2829 11.9215H16.7171C14.073 11.9215 11.9215 14.073 11.9215 16.7171V33.2829C11.9215 35.927 14.073 38.0785 16.7171 38.0785H33.2829C35.927 38.0785 38.0785 35.927 38.0785 33.2829V16.7171C38.0785 14.073 35.927 11.9215 33.2829 11.9215ZM24.9995 33.6109C20.2521 33.6109 16.3891 29.7479 16.3891 24.9995C16.3891 20.2521 20.2521 16.3891 24.9995 16.3891C29.7479 16.3891 33.6109 20.2521 33.6109 24.9995C33.6109 29.7479 29.7479 33.6109 24.9995 33.6109ZM33.8874 18.1698C32.7639 18.1698 31.85 17.2558 31.85 16.1324C31.85 15.0089 32.7639 14.095 33.8874 14.095C35.0109 14.095 35.9248 15.0089 35.9248 16.1324C35.9248 17.2558 35.0109 18.1698 33.8874 18.1698ZM24.9995 20.0283C22.2588 20.0283 20.0272 22.2588 20.0272 24.9995C20.0272 27.7412 22.2588 29.9728 24.9995 29.9728C27.7412 29.9728 29.9717 27.7412 29.9717 24.9995C29.9717 22.2588 27.7412 20.0283 24.9995 20.0283Z" fill="#D73074"/>
</svg>
