<svg width="63" height="33" viewBox="0 0 63 33" fill="none" xmlns="http://www.w3.org/2000/svg">
<path d="M8.4279 6.46161C8.4279 2.84911 6.27201 0 4.38526 0H4.38358C2.49627 0 0.340942 2.84911 0.340942 6.46161C0.340942 10.0741 1.84305 11.3536 2.28713 11.89C2.81979 12.533 3.4074 13.0183 3.40628 14.0647C3.40628 15.6899 3.24031 23.9042 3.22798 24.1526C3.10799 26.4653 2.45029 29.0341 2.45029 31.1814C2.45029 33 4.3847 33 4.3847 33C4.3847 33 6.31911 33 6.31911 31.1814C6.31911 29.0341 5.66085 26.4653 5.54142 24.1526C5.52796 23.9042 5.36312 15.6899 5.36312 14.0647C5.36312 13.0189 5.94905 12.533 6.48227 11.89C6.92579 11.3536 8.4279 10.0741 8.4279 6.46161ZM1.20218 6.82874C1.20218 6.82874 1.30702 8.70836 3.68046 11.6718C3.27003 11.6718 1.20218 10.1566 1.20218 6.82874Z" fill="#FF6B00"/>
<path d="M21.9062 6.46161C21.9062 2.84911 19.7503 0 17.8635 0H17.8619C15.9745 0 13.8192 2.84911 13.8192 6.46161C13.8192 10.0741 15.3213 11.3536 15.7654 11.89C16.2981 12.533 16.8857 13.0183 16.8846 14.0647C16.8846 15.6899 16.7186 23.9042 16.7063 24.1526C16.5863 26.4653 15.9286 29.0341 15.9286 31.1814C15.9286 33 17.863 33 17.863 33C17.863 33 19.7974 33 19.7974 31.1814C19.7974 29.0341 19.1391 26.4653 19.0197 24.1526C19.0062 23.9042 18.8414 15.6899 18.8414 14.0647C18.8414 13.0189 19.4273 12.533 19.9605 11.89C20.4041 11.3536 21.9062 10.0741 21.9062 6.46161ZM14.6804 6.82874C14.6804 6.82874 14.7853 8.70836 17.1587 11.6718C16.7483 11.6718 14.6804 10.1566 14.6804 6.82874Z" fill="#FF6B00"/>
<path d="M35.3844 6.46161C35.3844 2.84911 33.2286 0 31.3418 0H31.3401C29.4528 0 27.2975 2.84911 27.2975 6.46161C27.2975 10.0741 28.7996 11.3536 29.2437 11.89C29.7763 12.533 30.3639 13.0183 30.3628 14.0647C30.3628 15.6899 30.1969 23.9042 30.1845 24.1526C30.0645 26.4653 29.4068 29.0341 29.4068 31.1814C29.4068 33 31.3412 33 31.3412 33C31.3412 33 33.2757 33 33.2757 31.1814C33.2757 29.0341 32.6174 26.4653 32.498 24.1526C32.4845 23.9042 32.3197 15.6899 32.3197 14.0647C32.3197 13.0189 32.9056 12.533 33.4388 11.89C33.8823 11.3536 35.3844 10.0741 35.3844 6.46161ZM28.1587 6.82874C28.1587 6.82874 28.2636 8.70836 30.637 11.6718C30.2266 11.6718 28.1587 10.1566 28.1587 6.82874Z" fill="#C4C4C4"/>
<path d="M48.8627 6.46161C48.8627 2.84911 46.7068 0 44.8201 0H44.8184C42.9311 0 40.7758 2.84911 40.7758 6.46161C40.7758 10.0741 42.2779 11.3536 42.7219 11.89C43.2546 12.533 43.8422 13.0183 43.8411 14.0647C43.8411 15.6899 43.6751 23.9042 43.6628 24.1526C43.5428 26.4653 42.8851 29.0341 42.8851 31.1814C42.8851 33 44.8195 33 44.8195 33C44.8195 33 46.7539 33 46.7539 31.1814C46.7539 29.0341 46.0957 26.4653 45.9762 24.1526C45.9628 23.9042 45.7979 15.6899 45.7979 14.0647C45.7979 13.0189 46.3839 12.533 46.9171 11.89C47.3606 11.3536 48.8627 10.0741 48.8627 6.46161ZM41.637 6.82874C41.637 6.82874 41.7418 8.70836 44.1153 11.6718C43.7048 11.6718 41.637 10.1566 41.637 6.82874Z" fill="#C4C4C4"/>
<path d="M62.341 6.46161C62.341 2.84911 60.1851 0 58.2983 0H58.2967C56.4094 0 54.254 2.84911 54.254 6.46161C54.254 10.0741 55.7561 11.3536 56.2002 11.89C56.7329 12.533 57.3205 13.0183 57.3194 14.0647C57.3194 15.6899 57.1534 23.9042 57.1411 24.1526C57.0211 26.4653 56.3634 29.0341 56.3634 31.1814C56.3634 33 58.2978 33 58.2978 33C58.2978 33 60.2322 33 60.2322 31.1814C60.2322 29.0341 59.5739 26.4653 59.4545 24.1526C59.4411 23.9042 59.2762 15.6899 59.2762 14.0647C59.2762 13.0189 59.8621 12.533 60.3954 11.89C60.8389 11.3536 62.341 10.0741 62.341 6.46161ZM55.1153 6.82874C55.1153 6.82874 55.2201 8.70836 57.5935 11.6718C57.1831 11.6718 55.1153 10.1566 55.1153 6.82874Z" fill="#C4C4C4"/>
</svg>
