<svg width="223" height="44" viewBox="0 0 223 44" fill="none" xmlns="http://www.w3.org/2000/svg">
<path d="M48.812 14.4H56.484V15.212C56.036 15.38 55.588 15.5293 55.14 15.66C54.692 15.772 54.244 15.856 53.796 15.912V32.544H60.236L61.888 28.036H62.616C62.672 28.428 62.7187 28.8853 62.756 29.408C62.812 29.912 62.8493 30.444 62.868 31.004C62.9053 31.5453 62.924 32.0773 62.924 32.6C62.924 33.1227 62.9147 33.5893 62.896 34H48.812V33.188C49.26 32.9827 49.6707 32.8333 50.044 32.74C50.4173 32.6467 50.772 32.572 51.108 32.516V15.912C50.6787 15.8373 50.268 15.744 49.876 15.632C49.484 15.5013 49.1293 15.3613 48.812 15.212V14.4ZM64.5152 27C64.5152 25.824 64.6645 24.788 64.9632 23.892C65.2805 22.9773 65.7285 22.212 66.3072 21.596C66.8859 20.9613 67.5765 20.4853 68.3792 20.168C69.2005 19.832 70.1059 19.664 71.0952 19.664C72.2525 19.664 73.2512 19.8413 74.0912 20.196C74.9312 20.5507 75.6125 21.0547 76.1352 21.708C76.6765 22.3427 77.0685 23.108 77.3112 24.004C77.5725 24.9 77.7032 25.8987 77.7032 27C77.7032 29.352 77.1059 31.1627 75.9112 32.432C74.7165 33.7013 73.1112 34.336 71.0952 34.336C69.9752 34.336 69.0045 34.168 68.1832 33.832C67.3619 33.4773 66.6805 32.9827 66.1392 32.348C65.5979 31.6947 65.1872 30.92 64.9072 30.024C64.6459 29.1093 64.5152 28.1013 64.5152 27ZM67.2032 27C67.2032 27.84 67.2779 28.6333 67.4272 29.38C67.5952 30.1267 67.8472 30.78 68.1832 31.34C68.5379 31.8813 68.9952 32.3107 69.5552 32.628C70.1152 32.9453 70.7872 33.104 71.5712 33.104C72.5792 33.104 73.4005 32.6093 74.0352 31.62C74.6885 30.6307 75.0152 29.0907 75.0152 27C75.0152 26.1413 74.9312 25.348 74.7632 24.62C74.6139 23.8733 74.3712 23.2293 74.0352 22.688C73.6992 22.128 73.2699 21.6893 72.7472 21.372C72.2245 21.0547 71.5992 20.896 70.8712 20.896C69.7699 20.896 68.8832 21.3907 68.2112 22.38C67.5392 23.3693 67.2032 24.9093 67.2032 27ZM90.7998 32.04C90.4638 32.6933 89.9131 33.244 89.1478 33.692C88.4011 34.1213 87.5238 34.336 86.5158 34.336C85.4144 34.336 84.4531 34.168 83.6318 33.832C82.8291 33.4773 82.1571 32.9827 81.6158 32.348C81.0744 31.6947 80.6638 30.92 80.3838 30.024C80.1224 29.1093 79.9918 28.1013 79.9918 27C79.9918 24.6293 80.5704 22.8187 81.7278 21.568C82.8851 20.2987 84.4624 19.664 86.4598 19.664C87.3744 19.664 88.1864 19.748 88.8958 19.916C89.6238 20.0653 90.2398 20.2707 90.7438 20.532C90.6878 21.148 90.5851 21.8387 90.4358 22.604C90.2864 23.3693 90.0998 24.004 89.8758 24.508H89.1198L87.9438 21.176C87.8131 21.0827 87.6638 21.0173 87.4958 20.98C87.3278 20.924 87.0478 20.896 86.6558 20.896C85.3864 20.896 84.4064 21.3627 83.7158 22.296C83.0251 23.2107 82.6798 24.7693 82.6798 26.972C82.6798 27.6813 82.7731 28.372 82.9597 29.044C83.1651 29.716 83.4638 30.3227 83.8558 30.864C84.2664 31.3867 84.7704 31.8067 85.3678 32.124C85.9838 32.4413 86.6931 32.6 87.4958 32.6C88.1491 32.6 88.7184 32.5067 89.2038 32.32C89.6891 32.1333 90.0998 31.9093 90.4358 31.648L90.7998 32.04ZM103.367 30.332C103.367 30.7427 103.376 31.0973 103.395 31.396C103.413 31.6947 103.432 32.012 103.451 32.348L105.383 32.628V33.216C104.916 33.4587 104.393 33.6733 103.815 33.86C103.255 34.0467 102.713 34.1867 102.191 34.28H101.491C101.304 33.8507 101.192 33.384 101.155 32.88C101.117 32.3573 101.089 31.788 101.071 31.172H100.931C100.856 31.5453 100.707 31.928 100.483 32.32C100.277 32.6933 99.9974 33.0293 99.6427 33.328C99.3067 33.6267 98.9054 33.8693 98.4387 34.056C97.9721 34.2427 97.4401 34.336 96.8427 34.336C95.7041 34.336 94.7707 33.9907 94.0427 33.3C93.3334 32.6093 92.9787 31.704 92.9787 30.584C92.9787 29.7253 93.1467 29.0253 93.4827 28.484C93.8374 27.924 94.3507 27.4853 95.0227 27.168C95.6947 26.8507 96.5254 26.6267 97.5147 26.496C98.5041 26.3467 99.6521 26.2347 100.959 26.16C101.033 25.3573 101.052 24.6387 101.015 24.004C100.996 23.3507 100.893 22.8 100.707 22.352C100.539 21.8853 100.277 21.5307 99.9227 21.288C99.5867 21.0267 99.1387 20.896 98.5787 20.896C98.3174 20.896 98.0187 20.9147 97.6827 20.952C97.3654 20.9707 97.0481 21.0453 96.7307 21.176L95.4147 24.536H94.6867C94.5001 23.976 94.3321 23.3973 94.1827 22.8C94.0521 22.2027 93.9681 21.6147 93.9307 21.036C94.6401 20.6067 95.4241 20.2707 96.2827 20.028C97.1601 19.7853 98.1307 19.664 99.1947 19.664C100.147 19.664 100.903 19.804 101.463 20.084C102.041 20.3453 102.48 20.6907 102.779 21.12C103.077 21.5493 103.273 22.0253 103.367 22.548C103.46 23.0707 103.507 23.5933 103.507 24.116C103.507 25.236 103.479 26.3187 103.423 27.364C103.385 28.3907 103.367 29.38 103.367 30.332ZM97.9627 32.6C98.4294 32.6 98.8401 32.5067 99.1947 32.32C99.5494 32.1333 99.8481 31.9093 100.091 31.648C100.333 31.3867 100.529 31.1253 100.679 30.864C100.828 30.584 100.931 30.3507 100.987 30.164V27.224C99.9041 27.224 99.0174 27.28 98.3267 27.392C97.6361 27.504 97.0947 27.6813 96.7027 27.924C96.3107 28.1667 96.0401 28.4747 95.8907 28.848C95.7414 29.2027 95.6667 29.6133 95.6667 30.08C95.6667 30.8827 95.8721 31.508 96.2827 31.956C96.6934 32.3853 97.2534 32.6 97.9627 32.6ZM113.387 34H107.171V33.3C107.787 33.0013 108.403 32.7773 109.019 32.628V14.904L106.891 14.68V13.952C107.377 13.728 107.983 13.532 108.711 13.364C109.439 13.196 110.149 13.056 110.839 12.944H111.539V32.628C112.155 32.7773 112.771 33.0013 113.387 33.3V34ZM131.95 14.4H138.138V15.212C137.765 15.38 137.401 15.52 137.046 15.632C136.691 15.744 136.346 15.8373 136.01 15.912L130.382 23.36C130.849 23.976 131.381 24.6667 131.978 25.432C132.594 26.1973 133.229 26.9907 133.882 27.812C134.554 28.6147 135.235 29.436 135.926 30.276C136.635 31.0973 137.326 31.8813 137.998 32.628L139.342 33.3V34H135.842L134.89 33.328C133.789 32.04 132.687 30.6493 131.586 29.156C130.503 27.6627 129.449 26.1507 128.422 24.62H127.05V32.516C127.909 32.6653 128.609 32.8893 129.15 33.188V34H122.066V33.188C122.813 32.8893 123.578 32.6653 124.362 32.516V15.912C123.522 15.8 122.757 15.5667 122.066 15.212V14.4H129.15V15.212C128.851 15.3427 128.525 15.4733 128.17 15.604C127.815 15.716 127.442 15.8187 127.05 15.912V23.668L128.73 23.276L133.966 15.912C133.593 15.8187 133.238 15.716 132.902 15.604C132.566 15.492 132.249 15.3613 131.95 15.212V14.4ZM146.719 34H140.503V33.3C140.783 33.1507 141.073 33.0293 141.371 32.936C141.67 32.824 141.997 32.7213 142.351 32.628V21.624L140.503 21.4V20.672C141.045 20.448 141.633 20.252 142.267 20.084C142.902 19.916 143.537 19.776 144.171 19.664H144.871V32.628C145.245 32.7213 145.581 32.824 145.879 32.936C146.178 33.0293 146.458 33.1507 146.719 33.3V34ZM141.819 15.24C141.819 14.736 141.978 14.3347 142.295 14.036C142.631 13.7373 143.07 13.588 143.611 13.588C144.153 13.588 144.582 13.7373 144.899 14.036C145.217 14.3347 145.375 14.736 145.375 15.24C145.375 15.744 145.217 16.1453 144.899 16.444C144.582 16.724 144.153 16.864 143.611 16.864C143.07 16.864 142.631 16.724 142.295 16.444C141.978 16.1453 141.819 15.744 141.819 15.24ZM148.197 20.672C148.907 20.224 149.653 19.9067 150.437 19.72V17.34C150.68 17.1347 150.96 16.9573 151.277 16.808C151.613 16.64 151.94 16.4813 152.257 16.332H152.957V20H157.157V21.4H152.957V29.52C152.957 30.64 153.135 31.4333 153.489 31.9C153.844 32.3667 154.376 32.6 155.085 32.6C155.421 32.6 155.841 32.5813 156.345 32.544C156.849 32.488 157.279 32.3947 157.633 32.264L157.829 32.684C157.68 32.852 157.465 33.0293 157.185 33.216C156.924 33.4027 156.616 33.58 156.261 33.748C155.925 33.916 155.552 34.056 155.141 34.168C154.731 34.28 154.311 34.336 153.881 34.336C152.761 34.336 151.903 34.0187 151.305 33.384C150.727 32.7493 150.437 31.7227 150.437 30.304V21.4H148.197V20.672ZM170.124 32.04C169.788 32.6933 169.237 33.244 168.472 33.692C167.725 34.1213 166.848 34.336 165.84 34.336C164.739 34.336 163.777 34.168 162.956 33.832C162.153 33.4773 161.481 32.9827 160.94 32.348C160.399 31.6947 159.988 30.92 159.708 30.024C159.447 29.1093 159.316 28.1013 159.316 27C159.316 24.6293 159.895 22.8187 161.052 21.568C162.209 20.2987 163.787 19.664 165.784 19.664C166.699 19.664 167.511 19.748 168.22 19.916C168.948 20.0653 169.564 20.2707 170.068 20.532C170.012 21.148 169.909 21.8387 169.76 22.604C169.611 23.3693 169.424 24.004 169.2 24.508H168.444L167.268 21.176C167.137 21.0827 166.988 21.0173 166.82 20.98C166.652 20.924 166.372 20.896 165.98 20.896C164.711 20.896 163.731 21.3627 163.04 22.296C162.349 23.2107 162.004 24.7693 162.004 26.972C162.004 27.6813 162.097 28.372 162.284 29.044C162.489 29.716 162.788 30.3227 163.18 30.864C163.591 31.3867 164.095 31.8067 164.692 32.124C165.308 32.4413 166.017 32.6 166.82 32.6C167.473 32.6 168.043 32.5067 168.528 32.32C169.013 32.1333 169.424 31.9093 169.76 31.648L170.124 32.04ZM187.171 34H181.123V33.3C181.571 33.0573 182.131 32.8333 182.803 32.628V26.076C182.803 24.62 182.598 23.4813 182.187 22.66C181.776 21.82 181.03 21.4 179.947 21.4C179.462 21.4 179.023 21.4933 178.631 21.68C178.239 21.848 177.884 22.072 177.567 22.352C177.25 22.632 176.979 22.9587 176.755 23.332C176.531 23.6867 176.363 24.06 176.251 24.452V32.628C176.55 32.7027 176.83 32.7867 177.091 32.88C177.371 32.9733 177.642 33.1133 177.903 33.3V34H171.883V33.3C172.462 33.0013 173.078 32.7773 173.731 32.628V14.904L171.603 14.68V13.952C172.144 13.728 172.77 13.532 173.479 13.364C174.207 13.196 174.898 13.056 175.551 12.944H176.251V22.828H176.279C176.671 21.9507 177.231 21.204 177.959 20.588C178.706 19.972 179.602 19.664 180.647 19.664C181.394 19.664 182.056 19.7573 182.635 19.944C183.232 20.112 183.727 20.42 184.119 20.868C184.511 21.316 184.81 21.9227 185.015 22.688C185.22 23.4347 185.323 24.3867 185.323 25.544V32.628C185.64 32.7027 185.958 32.7867 186.275 32.88C186.592 32.9733 186.891 33.1133 187.171 33.3V34ZM200.133 32.04C199.983 32.3573 199.75 32.656 199.433 32.936C199.115 33.216 198.751 33.4587 198.341 33.664C197.93 33.8693 197.482 34.028 196.997 34.14C196.511 34.2707 196.017 34.336 195.513 34.336C194.411 34.336 193.441 34.168 192.601 33.832C191.761 33.4773 191.061 32.9827 190.501 32.348C189.941 31.6947 189.511 30.92 189.213 30.024C188.933 29.128 188.793 28.12 188.793 27C188.793 24.6107 189.343 22.7907 190.445 21.54C191.546 20.2893 193.105 19.664 195.121 19.664C195.774 19.664 196.418 19.7573 197.053 19.944C197.687 20.112 198.247 20.4013 198.733 20.812C199.237 21.2227 199.638 21.7733 199.937 22.464C200.254 23.136 200.413 23.976 200.413 24.984C200.413 25.3013 200.394 25.628 200.357 25.964C200.338 26.2813 200.291 26.6267 200.217 27H191.481C191.481 27.784 191.574 28.5213 191.761 29.212C191.966 29.884 192.265 30.472 192.657 30.976C193.049 31.48 193.543 31.8813 194.141 32.18C194.738 32.46 195.438 32.6 196.241 32.6C196.894 32.6 197.557 32.5067 198.229 32.32C198.901 32.1333 199.405 31.8907 199.741 31.592L200.133 32.04ZM195.009 20.896C193.945 20.896 193.133 21.26 192.573 21.988C192.013 22.6973 191.677 23.9573 191.565 25.768H197.725C197.743 25.6 197.753 25.4413 197.753 25.292C197.771 25.124 197.781 24.9653 197.781 24.816C197.781 23.6213 197.557 22.6693 197.109 21.96C196.661 21.2507 195.961 20.896 195.009 20.896ZM217.883 34H211.863V33.3C212.367 33.0387 212.917 32.8147 213.515 32.628V25.992C213.515 24.5733 213.309 23.4533 212.899 22.632C212.488 21.8107 211.741 21.4 210.659 21.4C210.192 21.4 209.753 21.484 209.343 21.652C208.951 21.82 208.596 22.0533 208.279 22.352C207.98 22.632 207.719 22.9587 207.495 23.332C207.271 23.6867 207.093 24.06 206.963 24.452V32.628C207.541 32.74 208.101 32.964 208.643 33.3V34H202.595V33.3C203.061 33.0573 203.677 32.8333 204.443 32.628V21.624L202.595 21.4V20.672C203.08 20.4667 203.64 20.28 204.275 20.112C204.909 19.944 205.572 19.7947 206.263 19.664H206.963V22.8H206.991C207.383 21.9413 207.943 21.204 208.671 20.588C209.417 19.972 210.313 19.664 211.359 19.664C212.105 19.664 212.768 19.7573 213.347 19.944C213.944 20.112 214.439 20.42 214.831 20.868C215.223 21.316 215.521 21.9227 215.727 22.688C215.932 23.4347 216.035 24.3867 216.035 25.544V32.628C216.781 32.7587 217.397 32.9827 217.883 33.3V34Z" fill="white"/>
<path d="M0 20.8037C0 24.1495 2.32616 29.0307 6.9138 35.3111C10.2625 39.8949 13.6595 43.6055 13.7011 43.6508C13.9051 43.8731 14.1956 44 14.5002 44C14.8048 44 15.0952 43.8733 15.2992 43.6509C15.3398 43.6066 18.7374 39.8956 22.0862 35.3111C26.6738 29.0307 29 24.1495 29 20.8037C29 13.1076 23.4329 6.97075 16.064 6.20474C16.2443 4.47449 18.0737 1.32441 23.9492 2.56606C23.8797 2.15587 24.1161 1.13041 25.6182 0.31004C17.7399 -1.25975 13.9484 3.51237 13.0374 6.09466C5.6613 6.86201 0 13.1052 0 20.8037Z" fill="white"/>
<path d="M13.9804 27.0822C13.0755 27.4241 10.8067 29.257 8.97082 33.8527C11.0571 29.8767 13.5605 28.9287 13.9871 28.7235C14.0237 33.4347 14.1144 36.9522 14.5002 41.6491C14.8416 37.4933 14.8123 38.3664 15.0133 34.0579C15.6468 34.0579 16.4813 34.4493 18.3589 37.1354C17.9417 34.8786 15.9249 32.7585 15.02 32.4165C15.0208 32.1743 15.0214 27.2823 15.0218 24.2098H13.9789C13.9793 26.3893 13.9798 26.8905 13.9804 27.0822Z" fill="#2B8800"/>
<ellipse cx="14" cy="18.5" rx="8" ry="7.5" fill="#2B8800"/>
</svg>
