<svg width="16" height="24" viewBox="0 0 16 24" fill="none" xmlns="http://www.w3.org/2000/svg">
<path d="M15.8988 7.48076C15.8813 8.8177 15.5071 10.1266 14.8136 11.2765C14.1162 12.4761 13.3505 13.6542 12.5506 14.7843C10.8436 17.1644 9.46097 19.6836 8.70746 22.5148C8.6026 22.9059 8.54407 23.3114 8.44165 23.7145C8.39214 23.8202 8.3245 23.9168 8.24169 24C8.15504 23.9212 8.08466 23.8267 8.03441 23.7217C7.25408 20.1683 5.54952 17.0636 3.38895 14.1556C2.67013 13.2158 2.01829 12.2281 1.4381 11.1997C-0.820006 7.06328 1.13084 1.4609 6.38595 0.213261C11.2045 -0.92881 15.8963 2.66295 15.8988 7.48076ZM8.22706 10.6766C9.02629 10.6716 9.79103 10.3556 10.3543 9.79778C10.9177 9.23993 11.2338 8.48548 11.2338 7.6991C11.2198 6.94045 10.9055 6.21712 10.3577 5.68303C9.80987 5.14894 9.07188 4.84626 8.30072 4.83938C7.52956 4.8325 6.78611 5.12198 6.22857 5.64621C5.67102 6.17044 5.3434 6.88804 5.31542 7.64632C5.30322 9.27305 6.64687 10.6694 8.22706 10.6766Z" fill="white"/>
</svg>
