<svg width="50" height="50" viewBox="0 0 50 50" fill="none" xmlns="http://www.w3.org/2000/svg">
<path fill-rule="evenodd" clip-rule="evenodd" d="M0 0H50V50H0V0ZM7.52609 18.9128C4.14789 28.7828 9.4598 38.5008 17.6201 41.9108C17.6201 41.8238 17.6188 41.7439 17.6176 41.6687C17.6151 41.5195 17.613 41.3889 17.622 41.2592C17.6436 40.9493 17.655 40.6371 17.6664 40.3249C17.6925 39.6103 17.7186 38.8955 17.8676 38.2075C18.3357 36.0468 18.8423 33.8945 19.349 31.7422C19.6367 30.5198 19.9245 29.2974 20.2052 28.0734C20.2658 27.809 20.2531 27.4922 20.1671 27.2358C19.739 25.9601 19.6059 24.6634 19.8807 23.3477C20.1476 22.0706 20.7228 20.9669 21.9175 20.3065C23.6231 19.3637 25.4476 20.2643 25.6404 22.1953C25.7111 22.9043 25.6205 23.6602 25.4483 24.3563C25.2382 25.2046 24.9936 26.0443 24.749 26.8841C24.5191 27.6735 24.2892 28.4628 24.0879 29.2594C23.6872 30.8455 24.5867 32.2911 26.1713 32.7052C27.3214 33.0057 28.3814 32.7428 29.3507 32.0905C30.3826 31.3962 31.0758 30.4152 31.6012 29.312C32.6621 27.0838 33.0434 24.7132 32.8894 22.2729C32.6974 19.23 30.7813 16.9349 27.8136 16.2109C26.8159 15.9674 25.7554 15.8791 24.7252 15.8887C20.8793 15.9242 17.5999 18.3732 16.4839 22.0437C15.8954 23.9793 15.6778 25.9995 16.8976 27.7446C17.567 28.702 17.6548 29.5174 17.2787 30.5092C17.2594 30.5605 17.2416 30.6125 17.227 30.6653C17.0306 31.3741 16.7425 31.5053 16.0638 31.1835C14.7246 30.5485 13.8395 29.4916 13.2794 28.145C11.6634 24.26 12.7928 19.2698 16.1525 16.3262C20.5208 12.4988 25.5639 11.7958 30.8836 13.8841C34.4143 15.2701 36.6664 18.0226 37.2086 21.8262C37.7329 25.5045 36.9674 28.9999 34.798 32.0894C33.5153 33.9162 31.7833 35.1589 29.5915 35.6859C27.5289 36.1818 25.5602 36.0483 23.82 34.673C23.5907 34.4918 23.3686 34.3016 23.1491 34.1137C23.0481 34.0272 22.9476 33.9412 22.8473 33.8568C22.7361 34.291 22.63 34.7356 22.5225 35.1858C22.2725 36.2327 22.0152 37.3103 21.6706 38.3592C21.3293 39.3978 20.9014 40.4081 20.4744 41.4162C20.2874 41.8576 20.1005 42.2986 19.9212 42.7415C27.7963 45.2354 38.2995 41.6986 42.2173 31.7024C46.0015 22.0468 41.1735 11.2759 31.412 7.65091C21.6782 4.03628 10.8679 9.14927 7.52609 18.9128Z" fill="#C9353D"/>
</svg>
