<svg width="25" height="26" viewBox="0 0 25 26" fill="none" xmlns="http://www.w3.org/2000/svg">
<path d="M15.0241 16.551C14.6078 16.0802 14.133 16.081 13.6392 16.0011C14.4891 15.492 14.916 15.1336 15.5148 14.3412C15.533 14.8396 15.4806 15.3127 15.8972 15.7829C16.5445 16.5135 19.8896 20.1414 19.9946 20.2478C20.969 21.2406 22.2858 22.137 23.141 23.1023C23.8653 23.9199 23.0022 24.6792 23.0022 24.6792C23.0022 24.6792 22.1392 25.4384 21.4148 24.6209C20.5596 23.6556 19.8299 22.2427 18.9624 21.1559C18.8689 21.0394 15.6714 17.2816 15.0241 16.551Z" fill="white"/>
<path d="M13.6392 16.0011C14.133 16.081 14.6078 16.0802 15.0241 16.551C15.6714 17.2816 18.8689 21.0394 18.9624 21.1559C19.8299 22.2427 20.5596 23.6556 21.4148 24.6209C22.1392 25.4384 23.0022 24.6792 23.0022 24.6792C23.0022 24.6792 23.8653 23.9199 23.141 23.1023C22.2858 22.137 20.969 21.2406 19.9946 20.2478C19.8896 20.1414 16.5445 16.5135 15.8972 15.7829C15.4806 15.3127 15.533 14.8396 15.5148 14.3412C14.916 15.1336 14.4891 15.492 13.6392 16.0011Z" fill="white"/>
<path d="M13.6392 16.0011L13.1254 15.1432L13.1087 15.1531L13.0925 15.1638L13.6392 16.0011ZM15.0241 16.551L14.2749 17.2134L14.2756 17.2142L15.0241 16.551ZM18.9624 21.1559L19.7439 20.532L19.7425 20.5303L18.9624 21.1559ZM21.4148 24.6209L20.6663 25.284L21.4148 24.6209ZM23.0022 24.6792L23.6628 25.43L23.6628 25.43L23.0022 24.6792ZM23.141 23.1023L22.3925 23.7655L23.141 23.1023ZM19.9946 20.2478L20.7083 19.5474L20.7065 19.5456L19.9946 20.2478ZM15.8972 15.7829L16.6457 15.1198L15.8972 15.7829ZM15.5148 14.3412L14.7501 13.6969L14.733 13.7172L14.717 13.7383L15.5148 14.3412ZM15.4884 3.69189L16.2369 3.02874L15.4884 3.69189ZM2.99556 14.6824L2.24707 15.3456L2.99556 14.6824ZM13.4793 16.9882C13.5526 17.0001 13.6234 17.0101 13.6847 17.0187C13.7492 17.0277 13.8015 17.0349 13.8534 17.0429C13.9563 17.0587 14.0242 17.0728 14.0776 17.0885C14.1581 17.1123 14.2093 17.1392 14.2749 17.2134L15.7733 15.8887C15.0638 15.0861 14.1291 15.0674 13.7991 15.0139L13.4793 16.9882ZM14.2756 17.2142C14.5915 17.5707 15.5451 18.6838 16.4402 19.7328C16.8858 20.255 17.3141 20.758 17.6366 21.1376C17.7979 21.3274 17.9326 21.486 18.0297 21.6007C18.0782 21.6581 18.117 21.704 18.1449 21.7371C18.1776 21.7759 18.1858 21.786 18.1822 21.7815L19.7425 20.5303C19.6345 20.3956 16.4248 16.624 15.7726 15.8879L14.2756 17.2142ZM18.1809 21.7798C18.5777 22.2768 18.9469 22.8536 19.3557 23.4803C19.7489 24.0831 20.1827 24.7382 20.6663 25.284L22.1633 23.9578C21.7917 23.5383 21.4331 23.0043 21.0308 22.3876C20.6441 21.7948 20.2147 21.1217 19.7439 20.532L18.1809 21.7798ZM20.6663 25.284C20.9707 25.6275 21.3352 25.8515 21.7355 25.9474C22.1253 26.0408 22.4806 25.9966 22.7552 25.918C23.027 25.8403 23.2458 25.7219 23.3911 25.6299C23.4658 25.5825 23.5268 25.5385 23.5719 25.504C23.5946 25.4866 23.6137 25.4713 23.6288 25.4588C23.6364 25.4526 23.643 25.447 23.6487 25.4422C23.6515 25.4397 23.6541 25.4375 23.6565 25.4355C23.6576 25.4345 23.6587 25.4335 23.6598 25.4326C23.6603 25.4321 23.6608 25.4317 23.6613 25.4312C23.6616 25.431 23.6619 25.4307 23.6621 25.4306C23.6624 25.4303 23.6628 25.43 23.0022 24.6792C22.3417 23.9283 22.3421 23.928 22.3424 23.9277C22.3425 23.9276 22.3429 23.9273 22.3431 23.9272C22.3435 23.9268 22.344 23.9264 22.3444 23.926C22.3452 23.9253 22.346 23.9246 22.3468 23.9239C22.3483 23.9226 22.3496 23.9215 22.3508 23.9205C22.3532 23.9185 22.3549 23.917 22.356 23.9161C22.3581 23.9144 22.3579 23.9146 22.3556 23.9164C22.3507 23.9202 22.3386 23.9291 22.321 23.9402C22.2819 23.965 22.2396 23.9853 22.2051 23.9952C22.1735 24.0042 22.1772 23.9966 22.2014 24.0024C22.2361 24.0107 22.2212 24.023 22.1633 23.9578L20.6663 25.284ZM23.0022 24.6792C23.6628 25.43 23.6631 25.4297 23.6635 25.4293C23.6636 25.4292 23.664 25.4289 23.6642 25.4287C23.6647 25.4283 23.6652 25.4278 23.6657 25.4273C23.6668 25.4264 23.6679 25.4254 23.669 25.4244C23.6713 25.4223 23.6739 25.4201 23.6766 25.4176C23.6822 25.4125 23.6885 25.4067 23.6957 25.3999C23.71 25.3865 23.7276 25.3696 23.7478 25.3493C23.7878 25.3089 23.8392 25.254 23.8957 25.1859C24.0054 25.0536 24.1508 24.8514 24.2623 24.5914C24.375 24.3287 24.4635 23.981 24.4186 23.5818C24.3725 23.1718 24.1938 22.7826 23.8895 22.4392L22.3925 23.7655C22.4504 23.8308 22.4354 23.8431 22.4312 23.8054C22.4281 23.7785 22.4367 23.774 22.4242 23.8032C22.4105 23.8352 22.3854 23.874 22.3559 23.9096C22.3428 23.9254 22.3324 23.9362 22.3281 23.9406C22.326 23.9427 22.3258 23.9428 22.3278 23.9409C22.3288 23.9399 22.3305 23.9384 22.3328 23.9364C22.3339 23.9353 22.3352 23.9341 22.3367 23.9328C22.3375 23.9321 22.3382 23.9314 22.3391 23.9307C22.3395 23.9303 22.3399 23.9299 22.3404 23.9295C22.3406 23.9293 22.3409 23.9291 22.341 23.929C22.3414 23.9287 22.3417 23.9283 23.0022 24.6792ZM23.8895 22.4392C23.4059 21.8933 22.8073 21.3833 22.2558 20.9198C21.6825 20.438 21.1539 20.0014 20.7083 19.5474L19.2809 20.9483C19.8097 21.4871 20.4267 21.9951 20.9691 22.4509C21.5335 22.9252 22.0209 23.346 22.3925 23.7655L23.8895 22.4392ZM20.7065 19.5456C20.7075 19.5466 20.6594 19.4954 20.5481 19.3754C20.446 19.2653 20.3048 19.1126 20.1357 18.9296C19.7978 18.5637 19.3501 18.0779 18.8853 17.5725C17.9517 16.5574 16.9616 15.4763 16.6457 15.1198L15.1487 16.4461C15.7994 17.1805 19.1586 20.8244 19.2826 20.9501L20.7065 19.5456ZM16.6457 15.1198C16.5783 15.0437 16.5566 14.9869 16.5421 14.9028C16.5326 14.848 16.5266 14.7789 16.5231 14.6765C16.5213 14.6251 16.5204 14.5724 16.5192 14.5087C16.5181 14.448 16.5168 14.3774 16.5142 14.3048L14.5155 14.3777C14.5282 14.7257 14.4401 15.6463 15.1487 16.4461L16.6457 15.1198ZM14.1531 16.859C15.0988 16.2925 15.6269 15.8515 16.3126 14.9442L14.717 13.7383C14.2051 14.4157 13.8795 14.6915 13.1254 15.1432L14.1531 16.859ZM3.74405 14.0193C1.15775 11.1001 1.47313 6.55462 4.52569 3.86914L3.20465 2.36753C-0.642402 5.75195 -1.1057 11.5613 2.24707 15.3456L3.74405 14.0193ZM4.52569 3.86914C7.58012 1.18203 12.1516 1.43364 14.7399 4.35503L16.2369 3.02874C12.8861 -0.753287 7.04985 -1.01526 3.20465 2.36753L4.52569 3.86914ZM13.0925 15.1638C10.0887 17.1252 6.09763 16.6757 3.74405 14.0193L2.24707 15.3456C5.29359 18.7842 10.3971 19.3124 14.186 16.8384L13.0925 15.1638ZM14.7399 4.35503C17.0824 6.99892 17.0449 10.9733 14.7501 13.6969L16.2796 14.9856C19.1796 11.5437 19.2722 6.45464 16.2369 3.02874L14.7399 4.35503Z" fill="white"/>
</svg>
