<svg width="37" height="37" viewBox="0 0 37 37" fill="none" xmlns="http://www.w3.org/2000/svg">
<path fill-rule="evenodd" clip-rule="evenodd" d="M18.9134 36.6667C28.8896 36.6667 36.977 28.6078 36.977 18.6667C36.977 8.72553 28.8896 0.666656 18.9134 0.666656C8.9371 0.666656 0.849731 8.72553 0.849731 18.6667C0.849731 28.6078 8.9371 36.6667 18.9134 36.6667ZM29.0362 12.5885C29.3393 12.5885 29.6171 12.7457 29.7939 12.9814C29.9707 13.2172 30.0465 13.5315 29.9707 13.8196L27.6722 23.1446C27.5459 23.5637 27.167 23.878 26.7376 23.878H14.3102L14.8659 26.2093H25.2221C25.7525 26.2093 26.1819 26.6546 26.1819 27.2046C26.1819 27.7547 25.7525 28.2 25.2221 28.2H23.76H16.08H14.1334C13.6787 28.2 13.2998 27.8857 13.1988 27.4404L9.30892 10.9907H6.95984C6.4294 10.9907 6 10.5454 6 9.99536C6 9.44529 6.4294 9 6.95984 9H10.0414C10.4961 9 10.875 9.31432 10.976 9.75962L11.658 12.5885H29.0362ZM16.08 28.2C16.8753 28.2 17.52 28.8447 17.52 29.64C17.52 30.4353 16.8753 31.08 16.08 31.08C15.2847 31.08 14.64 30.4353 14.64 29.64C14.64 28.8447 15.2847 28.2 16.08 28.2ZM23.76 28.2C22.9647 28.2 22.32 28.8447 22.32 29.64C22.32 30.4353 22.9647 31.08 23.76 31.08C24.5553 31.08 25.2 30.4353 25.2 29.64C25.2 28.8447 24.5553 28.2 23.76 28.2Z" fill="white"/>
</svg>
