<svg width="50" height="50" viewBox="0 0 50 50" fill="none" xmlns="http://www.w3.org/2000/svg">
<path fill-rule="evenodd" clip-rule="evenodd" d="M0 0H50V50H0V0ZM18.1305 40.3956C13.8991 40.3956 9.95184 39.1743 6.62422 37.0638L6.62213 37.0633C13.1286 38.0348 17.7121 33.8942 17.7121 33.8942C11.9157 33.4434 10.7704 28.6195 10.7704 28.6195C12.8184 28.9662 14.1022 28.4799 14.1022 28.4799C7.57807 26.9535 8.133 20.9833 8.133 20.9833C9.64387 21.886 11.3951 21.9558 11.3951 21.9558C5.63416 16.8883 9.24396 11.9603 9.24396 11.9603C15.2839 19.2747 24.1623 19.7725 24.7453 19.7964C24.6173 19.2466 24.5496 18.674 24.5496 18.0858C24.5496 13.9168 27.9303 10.5371 32.1024 10.5371C34.2775 10.5371 36.237 11.4554 37.6155 12.9267C37.9977 12.8195 38.3683 12.7038 38.7223 12.5862C40.861 11.873 42.3884 11.0577 42.3884 11.0577C42.0198 13.266 39.2971 15.1194 39.1024 15.2495C39.0951 15.2547 39.091 15.2568 39.091 15.2568C39.093 15.2568 39.0954 15.2565 39.0977 15.2563C39.1 15.256 39.1024 15.2558 39.1045 15.2558C41.218 15.0444 43.3775 14.1469 43.3775 14.1469C42.7257 15.5171 40.0664 17.6485 39.6365 17.9869C39.6479 18.2806 39.6541 18.5752 39.6541 18.872C39.6541 30.7582 30.0178 40.3956 18.1305 40.3956Z" fill="#50ABF1"/>
</svg>
